<svg width="27" height="407" viewBox="0 0 27 407" fill="none" xmlns="http://www.w3.org/2000/svg">
<path d="M6.7988 388.95L25.4052 388.95L25.4052 397.77L6.7988 397.77L6.7988 407L0.629403 407L0.629402 379.72L6.7988 379.72L6.7988 388.95Z" fill="#F6101F"/>
<path d="M11.7409 378.951C9.8535 378.951 8.18432 378.613 6.73334 377.937C5.27145 377.249 4.04957 376.251 3.0677 374.942C2.07493 373.622 1.32216 371.996 0.80941 370.065C0.296657 368.124 0.0402814 365.898 0.0402813 363.389C0.0402812 360.88 0.302112 358.659 0.825774 356.728C1.33853 354.787 2.09675 353.161 3.10043 351.852C4.09321 350.532 5.31509 349.534 6.76607 348.857C8.21705 348.17 9.87531 347.826 11.7409 347.826L14.3101 347.826C16.1647 347.826 17.8175 348.17 19.2685 348.857C20.7086 349.534 21.9305 350.532 22.9341 351.852C23.9269 353.172 24.6851 354.803 25.2088 356.745C25.7325 358.676 25.9943 360.896 25.9943 363.405C25.9943 365.914 25.7379 368.134 25.2252 370.065C24.7124 371.996 23.9651 373.622 22.9832 374.942C21.9905 376.251 20.7686 377.249 19.3176 377.937C17.8666 378.613 16.1974 378.951 14.3101 378.951L11.7409 378.951ZM19.8085 363.405C19.8085 362.598 19.7103 361.796 19.514 361C19.3176 360.203 19.0067 359.489 18.5812 358.856C18.1557 358.223 17.6048 357.71 16.9284 357.318C16.2411 356.925 15.4065 356.728 14.4246 356.728L11.6263 356.728C10.6335 356.728 9.79349 356.925 9.10618 357.318C8.41888 357.71 7.86249 358.223 7.43701 358.856C7.01153 359.489 6.70607 360.203 6.5206 361C6.32423 361.796 6.22604 362.598 6.22604 363.405C6.22604 364.212 6.32423 365.014 6.5206 365.811C6.70607 366.607 7.01699 367.322 7.45338 367.954C7.87885 368.576 8.43524 369.084 9.12255 369.476C9.80986 369.869 10.6444 370.065 11.6263 370.065L14.4246 370.049C15.4065 370.049 16.2411 369.858 16.9284 369.476C17.6048 369.084 18.1557 368.571 18.5812 367.938C19.0067 367.305 19.3176 366.596 19.514 365.811C19.7103 365.014 19.8085 364.212 19.8085 363.405Z" fill="#F6101F"/>
<path d="M10.1208 316.046C11.5281 316.046 12.7718 316.303 13.8519 316.816C14.921 317.317 15.8156 318.032 16.5356 318.959C17.2557 319.887 17.8012 320.994 18.1721 322.281C18.543 323.569 18.7285 324.998 18.7285 326.569L18.7285 335.193L25.4052 335.193L25.4052 343.964L0.6294 343.964L0.629399 326.929C0.629399 325.303 0.809408 323.825 1.16943 322.494C1.52944 321.152 2.05311 320.007 2.74041 319.057C3.42772 318.097 4.26776 317.356 5.26054 316.832C6.2424 316.308 7.36064 316.046 8.61525 316.046L10.1208 316.046ZM9.2371 324.965C8.75707 324.965 8.35887 325.041 8.04249 325.194C7.72611 325.336 7.47519 325.538 7.28973 325.8C7.10427 326.061 6.97335 326.383 6.89698 326.765C6.82061 327.136 6.78243 327.551 6.78243 328.009L6.78243 335.176L12.5918 335.176L12.5918 328.189C12.5918 327.763 12.5427 327.36 12.4445 326.978C12.3463 326.585 12.1936 326.241 11.9863 325.947C11.7681 325.641 11.4954 325.401 11.1681 325.227C10.8299 325.052 10.4262 324.965 9.95713 324.965L9.2371 324.965Z" fill="#F6101F"/>
<path d="M25.6043 303.446L0.828499 292.449L0.828499 281.191L25.6043 270.194L25.6043 279.243L21.3331 280.912L21.3332 292.728L25.6043 294.397L25.6043 303.446ZM15.4583 290.437L15.4583 283.187L6.9488 286.509L6.9488 287.098L15.4583 290.437Z" fill="white"/>
<path d="M0.828497 240.443L14.6892 240.443C16.5547 240.443 18.2021 240.754 19.6312 241.376C21.0604 241.998 22.2605 242.92 23.2314 244.142C24.2024 245.363 24.9388 246.885 25.4406 248.707C25.9425 250.518 26.1934 252.618 26.1934 255.008C26.1934 257.626 25.9316 259.857 25.4079 261.701C24.8842 263.544 24.1315 265.05 23.1496 266.217C22.1677 267.374 20.9677 268.219 19.5494 268.754C18.1203 269.288 16.5056 269.556 14.7055 269.556L0.828498 269.556L0.828498 260.751L14.7219 260.751C16.4129 260.751 17.7166 260.293 18.633 259.377C19.5494 258.46 20.0076 256.993 20.0076 254.975C20.0076 253.96 19.8876 253.093 19.6476 252.373C19.4076 251.653 19.0639 251.058 18.6167 250.589C18.1584 250.12 17.6021 249.776 16.9475 249.558C16.2929 249.34 15.551 249.231 14.7219 249.231L0.828497 249.231L0.828497 240.443Z" fill="white"/>
<path d="M6.99789 220.364L25.6043 220.364L25.6043 229.184L6.99789 229.184L6.99789 238.414L0.828497 238.414L0.828496 211.134L6.99789 211.134L6.99789 220.364Z" fill="white"/>
<path d="M11.94 210.365C10.0526 210.365 8.38341 210.027 6.93243 209.351C5.47054 208.663 4.24866 207.665 3.2668 206.356C2.27402 205.036 1.52126 203.41 1.0085 201.479C0.495751 199.538 0.239375 197.312 0.239375 194.803C0.239375 192.294 0.501206 190.073 1.02487 188.142C1.53762 186.201 2.29584 184.575 3.29953 183.266C4.2923 181.946 5.51418 180.948 6.96516 180.271C8.41614 179.584 10.0744 179.24 11.94 179.24L14.5092 179.24C16.3638 179.24 18.0166 179.584 19.4676 180.271C20.9077 180.948 22.1295 181.946 23.1332 183.266C24.126 184.586 24.8842 186.217 25.4079 188.159C25.9316 190.09 26.1934 192.31 26.1934 194.819C26.1934 197.328 25.937 199.548 25.4243 201.479C24.9115 203.41 24.1642 205.036 23.1823 206.356C22.1896 207.665 20.9677 208.663 19.5167 209.351C18.0657 210.027 16.3965 210.365 14.5092 210.365L11.94 210.365ZM20.0076 194.819C20.0076 194.012 19.9094 193.21 19.7131 192.414C19.5167 191.617 19.2058 190.903 18.7803 190.27C18.3548 189.637 17.8039 189.124 17.1275 188.732C16.4402 188.339 15.6056 188.142 14.6237 188.142L11.8254 188.142C10.8326 188.142 9.99258 188.339 9.30528 188.732C8.61797 189.124 8.06158 189.637 7.6361 190.27C7.21063 190.903 6.90516 191.617 6.7197 192.414C6.52332 193.21 6.42513 194.012 6.42513 194.819C6.42513 195.626 6.52332 196.428 6.7197 197.225C6.90516 198.021 7.21608 198.736 7.65247 199.368C8.07795 199.99 8.63434 200.498 9.32164 200.89C10.009 201.283 10.8435 201.479 11.8254 201.479L14.6237 201.463C15.6056 201.463 16.4402 201.272 17.1275 200.89C17.8039 200.498 18.3548 199.985 18.7803 199.352C19.2058 198.719 19.5167 198.01 19.7131 197.225C19.9094 196.428 20.0076 195.626 20.0076 194.819Z" fill="white"/>
<path d="M7.76702 167.736L7.76702 167.769L10.0253 167.54L25.6043 167.13L25.6043 175.378L0.828494 175.378L0.828494 163.579L13.3309 157.786L15.0819 157.345L13.2982 156.87L0.828493 151.11L0.828492 139.311L25.6043 139.311L25.6043 147.559L10.0417 147.133L7.75065 146.904L7.75065 146.953L22.2005 153.204L22.2005 161.468L7.76702 167.736Z" fill="white"/>
<path d="M25.6043 136.725L0.828492 125.728L0.828491 114.47L25.6043 103.473L25.6043 112.522L21.3331 114.191L21.3331 126.007L25.6043 127.676L25.6043 136.725ZM15.4583 123.716L15.4583 116.466L6.94879 119.788L6.94879 120.377L15.4583 123.716Z" fill="white"/>
<path d="M6.99789 88.7611L25.6043 88.7611L25.6043 97.5816L6.99789 97.5816L6.99789 106.811L0.828491 106.811L0.82849 79.5316L6.99789 79.5316L6.99789 88.7611Z" fill="white"/>
<path d="M25.6043 76.766L0.82849 76.766L0.828489 67.9619L25.6043 67.9619L25.6043 76.766Z" fill="white"/>
<path d="M11.9399 64.0999C10.0526 64.0999 8.38341 63.7617 6.93243 63.0853C5.47054 62.398 4.24866 61.3998 3.26679 60.0906C2.27402 58.7706 1.52125 57.145 1.0085 55.214C0.495744 53.2721 0.239369 51.0465 0.239369 48.5373C0.239369 46.0281 0.5012 43.808 1.02486 41.877C1.53761 39.9351 2.29583 38.3096 3.29952 37.0004C4.2923 35.6803 5.51417 34.6821 6.96516 34.0057C8.41614 33.3184 10.0744 32.9748 11.9399 32.9748L14.5092 32.9748C16.3638 32.9748 18.0166 33.3184 19.4676 34.0057C20.9077 34.6821 22.1295 35.6803 23.1332 37.0004C24.126 38.3205 24.8842 39.9514 25.4079 41.8934C25.9315 43.8244 26.1934 46.0445 26.1934 48.5537C26.1934 51.0629 25.937 53.283 25.4243 55.214C24.9115 57.145 24.1642 58.7706 23.1823 60.0906C22.1895 61.3998 20.9677 62.398 19.5167 63.0853C18.0657 63.7617 16.3965 64.0999 14.5092 64.0999L11.9399 64.0999ZM20.0076 48.5537C20.0076 47.7464 19.9094 46.9445 19.7131 46.1481C19.5167 45.3517 19.2058 44.6371 18.7803 44.0044C18.3548 43.3716 17.8039 42.8589 17.1275 42.4661C16.4402 42.0734 15.6056 41.877 14.6237 41.877L11.8254 41.877C10.8326 41.877 9.99258 42.0734 9.30527 42.4661C8.61796 42.8589 8.06157 43.3716 7.6361 44.0044C7.21062 44.6371 6.90515 45.3517 6.71969 46.1481C6.52332 46.9445 6.42513 47.7464 6.42513 48.5537C6.42513 49.361 6.52332 50.1629 6.71969 50.9593C6.90515 51.7557 7.21608 52.4702 7.65246 53.103C8.07794 53.7249 8.63433 54.2321 9.32164 54.6249C10.0089 55.0176 10.8435 55.214 11.8254 55.214L14.6237 55.1977C15.6056 55.1977 16.4402 55.0067 17.1275 54.6249C17.8039 54.2321 18.3548 53.7194 18.7803 53.0866C19.2058 52.4539 19.5167 51.7448 19.7131 50.9593C19.9094 50.1629 20.0076 49.361 20.0076 48.5537Z" fill="white"/>
<path d="M25.6043 8.44443L11.3508 21.0614L11.3508 21.1269L13.4127 20.8814L25.6043 20.7342L25.6043 29.1127L0.828488 29.1127L0.828487 20.9632L15.6219 8.06805L15.6219 7.98621L13.6091 8.21533L0.828487 8.37897L0.828486 0.000366185L25.6043 0.000365102L25.6043 8.44443Z" fill="white"/>
</svg>
