<svg width="12" height="12" viewBox="0 0 12 12" fill="none" xmlns="http://www.w3.org/2000/svg">
<path d="M10.1648 7.51238L11.7271 9.07472C12.0434 9.39099 12.0434 9.90377 11.7271 10.22C10.0173 11.9299 7.31025 12.1223 5.37572 10.6714L5.26294 10.5868C3.8037 9.4924 2.50741 8.19612 1.41298 6.73688L1.3284 6.6241C-0.122498 4.68957 0.0698823 1.98257 1.77978 0.272669C2.09605 -0.0436007 2.60882 -0.0436004 2.92509 0.272669L4.48743 1.83501C4.87796 2.22553 4.87796 2.8587 4.48744 3.24922L3.41857 4.31809C3.2062 4.53046 3.15356 4.85488 3.28787 5.12351C4.0643 6.67637 5.32345 7.93552 6.87631 8.71195C7.14493 8.84626 7.46936 8.79361 7.68173 8.58125L8.75059 7.51238C9.14112 7.12186 9.77428 7.12186 10.1648 7.51238Z" fill="white"/>
</svg>
