<svg width="25" height="32" viewBox="0 0 25 32" fill="none" xmlns="http://www.w3.org/2000/svg">
<path d="M2 32H23C24.1046 32 25 31.1046 25 30V12.8L12.5 0H2C0.895431 0 0 0.895431 0 2V30C0 31.1046 0.89543 32 2 32Z" fill="#F6101F"/>
<path d="M13.5 13.7998L22.4375 13.7998L11.5 2.5998L11.5 11.7998C11.5 12.9044 12.3954 13.7998 13.5 13.7998Z" fill="white"/>
<path d="M6.83707 19.9111C7.30221 19.9111 7.70602 19.9924 8.04849 20.1549C8.39607 20.3175 8.66186 20.5505 8.84588 20.8539C9.02989 21.1573 9.1219 21.5176 9.1219 21.9348C9.1219 22.3465 9.02989 22.7068 8.84588 23.0156C8.66186 23.319 8.39607 23.552 8.04849 23.7146C7.70602 23.8771 7.30221 23.9584 6.83707 23.9584H5.62564V25.6H4.62891V19.9111H6.83707ZM6.79106 23.0644C7.22554 23.0644 7.55523 22.9669 7.78013 22.7718C8.00504 22.5768 8.11749 22.2978 8.11749 21.9348C8.11749 21.5717 8.00504 21.2927 7.78013 21.0977C7.55523 20.9026 7.22554 20.8051 6.79106 20.8051H5.62564V23.0644H6.79106Z" fill="white"/>
<path d="M10.1173 19.9111H12.4634C13.0359 19.9111 13.5445 20.0303 13.9892 20.2687C14.4339 20.5017 14.7789 20.8349 15.0243 21.2683C15.2696 21.6964 15.3923 22.1921 15.3923 22.7556C15.3923 23.319 15.2696 23.8175 15.0243 24.2509C14.7789 24.679 14.4339 25.0122 13.9892 25.2506C13.5445 25.4835 13.0359 25.6 12.4634 25.6H10.1173V19.9111ZM12.4174 24.7061C12.811 24.7061 13.156 24.6275 13.4525 24.4704C13.7541 24.3078 13.9841 24.0803 14.1425 23.7877C14.3061 23.4897 14.3879 23.1457 14.3879 22.7556C14.3879 22.3655 14.3061 22.0241 14.1425 21.7316C13.9841 21.4336 13.7541 21.206 13.4525 21.0489C13.156 20.8864 12.811 20.8051 12.4174 20.8051H11.114V24.7061H12.4174Z" fill="white"/>
<path d="M17.4484 20.797V22.528H20.04V23.422H17.4484V25.6H16.4517V19.9111H20.3696V20.797H17.4484Z" fill="white"/>
</svg>
